<svg width="20" height="21" viewBox="0 0 20 21" fill="none" xmlns="http://www.w3.org/2000/svg">
<path d="M10.0001 2.16667C5.40841 2.16667 1.66675 5.90834 1.66675 10.5C1.66675 15.0917 5.40841 18.8333 10.0001 18.8333C14.5917 18.8333 18.3334 15.0917 18.3334 10.5C18.3334 5.90834 14.5917 2.16667 10.0001 2.16667ZM13.3334 11.125H10.6251V13.8333C10.6251 14.175 10.3417 14.4583 10.0001 14.4583C9.65842 14.4583 9.37508 14.175 9.37508 13.8333V11.125H6.66675C6.32508 11.125 6.04175 10.8417 6.04175 10.5C6.04175 10.1583 6.32508 9.87501 6.66675 9.87501H9.37508V7.16667C9.37508 6.82501 9.65842 6.54167 10.0001 6.54167C10.3417 6.54167 10.6251 6.82501 10.6251 7.16667V9.87501H13.3334C13.6751 9.87501 13.9584 10.1583 13.9584 10.5C13.9584 10.8417 13.6751 11.125 13.3334 11.125Z" fill="white"/>
</svg>
