<svg width="24" height="24" viewBox="0 0 24 24" fill="none" xmlns="http://www.w3.org/2000/svg">
<path d="M19.73 16.1C19.73 16.07 19.75 16.04 19.75 16V6.49999C19.75 4.97999 18.52 3.74999 17 3.74999H13.07L14.48 2.57999C14.8 2.30999 14.84 1.83999 14.58 1.51999C14.31 1.19999 13.84 1.15999 13.52 1.41999L10.52 3.91999C10.35 4.05999 10.25 4.26999 10.25 4.49999C10.25 4.72999 10.35 4.92999 10.52 5.07999L13.52 7.57999C13.66 7.69999 13.83 7.74999 14 7.74999C14.21 7.74999 14.43 7.65999 14.58 7.47999C14.85 7.15999 14.8 6.68999 14.48 6.41999L13.07 5.24999H17C17.69 5.24999 18.25 5.80999 18.25 6.49999V16C18.25 16.04 18.27 16.07 18.27 16.1C16.97 16.43 16 17.6 16 19C16 20.66 17.34 22 19 22C20.66 22 22 20.66 22 19C22 17.6 21.03 16.43 19.73 16.1Z" fill="white"/>
<path d="M13.48 18.92L10.48 16.42C10.16 16.15 9.69 16.2 9.42 16.52C9.15 16.84 9.2 17.31 9.52 17.58L10.93 18.75H7C6.31 18.75 5.75 18.19 5.75 17.5V8C5.75 7.96 5.73 7.93 5.73 7.9C7.03 7.57 8 6.4 8 5C8 3.34 6.66 2 5 2C3.34 2 2 3.34 2 5C2 6.4 2.97 7.57 4.27 7.9C4.27 7.93 4.25 7.96 4.25 8V17.5C4.25 19.02 5.48 20.25 7 20.25H10.93L9.52 21.42C9.2 21.69 9.16 22.16 9.42 22.48C9.57 22.66 9.78 22.75 10 22.75C10.17 22.75 10.34 22.69 10.48 22.58L13.48 20.08C13.65 19.94 13.75 19.73 13.75 19.5C13.75 19.27 13.65 19.07 13.48 18.92Z" fill="white"/>
</svg>
