<svg width="25" height="24" viewBox="0 0 25 24" fill="none" xmlns="http://www.w3.org/2000/svg">
<path d="M20.4338 6.94C20.4338 7.48 20.1438 7.97 19.6838 8.22L17.9438 9.16L16.4638 9.95L13.3938 11.61C13.0638 11.79 12.7038 11.88 12.3338 11.88C11.9638 11.88 11.6038 11.79 11.2738 11.61L4.98376 8.22C4.52376 7.97 4.23376 7.48 4.23376 6.94C4.23376 6.4 4.52376 5.91 4.98376 5.66L6.95376 4.6L8.52376 3.75L11.2738 2.27C11.9338 1.91 12.7338 1.91 13.3938 2.27L19.6838 5.66C20.1438 5.91 20.4338 6.4 20.4338 6.94Z" fill="#777777"/>
<path d="M10.2341 12.7901L4.38408 9.87014C3.93408 9.64014 3.41408 9.67014 2.98408 9.93014C2.55408 10.1901 2.30408 10.6501 2.30408 11.1501V16.6801C2.30408 17.6401 2.83408 18.5001 3.69408 18.9301L9.54408 21.8501C9.74408 21.9501 9.96408 22.0001 10.1841 22.0001C10.4441 22.0001 10.7041 21.9301 10.9341 21.7801C11.3641 21.5201 11.6141 21.0601 11.6141 20.5601V15.0301C11.6241 14.0801 11.0941 13.2201 10.2341 12.7901Z" fill="#777777"/>
<path d="M22.3643 11.1501V16.6801C22.3643 17.6301 21.8343 18.4901 20.9743 18.9201L15.1243 21.8501C14.9243 21.9501 14.7043 22.0001 14.4843 22.0001C14.2243 22.0001 13.9643 21.9301 13.7243 21.7801C13.3043 21.5201 13.0443 21.0601 13.0443 20.5601V15.0401C13.0443 14.0801 13.5743 13.2201 14.4343 12.7901L16.5843 11.7201L18.0843 10.9701L20.2843 9.87013C20.7343 9.64013 21.2543 9.66013 21.6843 9.93013C22.1043 10.1901 22.3643 10.6501 22.3643 11.1501Z" fill="#777777"/>
<path d="M17.9425 9.16L16.4625 9.95L6.95251 4.6L8.52251 3.75L17.7025 8.93C17.8025 8.99 17.8825 9.07 17.9425 9.16Z" fill="#777777"/>
<path d="M18.0834 10.97V13.24C18.0834 13.65 17.7434 13.99 17.3334 13.99C16.9234 13.99 16.5834 13.65 16.5834 13.24V11.72L18.0834 10.97Z" fill="#777777"/>
</svg>
