<svg width="20" height="20" viewBox="0 0 20 20" fill="none" xmlns="http://www.w3.org/2000/svg">
<path d="M18.3333 17.7083H1.66663C1.32496 17.7083 1.04163 17.9917 1.04163 18.3333C1.04163 18.675 1.32496 18.9583 1.66663 18.9583H18.3333C18.675 18.9583 18.9583 18.675 18.9583 18.3333C18.9583 17.9917 18.675 17.7083 18.3333 17.7083Z" fill="#1C1C1C"/>
<path d="M14.1667 1.66667H5.83333C3.33333 1.66667 2.5 3.15833 2.5 5V18.3333H17.5V5C17.5 3.15833 16.6667 1.66667 14.1667 1.66667ZM8.33333 14.375H5.83333C5.49167 14.375 5.20833 14.0917 5.20833 13.75C5.20833 13.4083 5.49167 13.125 5.83333 13.125H8.33333C8.675 13.125 8.95833 13.4083 8.95833 13.75C8.95833 14.0917 8.675 14.375 8.33333 14.375ZM8.33333 10.625H5.83333C5.49167 10.625 5.20833 10.3417 5.20833 10C5.20833 9.65833 5.49167 9.375 5.83333 9.375H8.33333C8.675 9.375 8.95833 9.65833 8.95833 10C8.95833 10.3417 8.675 10.625 8.33333 10.625ZM8.33333 6.875H5.83333C5.49167 6.875 5.20833 6.59167 5.20833 6.25C5.20833 5.90833 5.49167 5.625 5.83333 5.625H8.33333C8.675 5.625 8.95833 5.90833 8.95833 6.25C8.95833 6.59167 8.675 6.875 8.33333 6.875ZM14.1667 14.375H11.6667C11.325 14.375 11.0417 14.0917 11.0417 13.75C11.0417 13.4083 11.325 13.125 11.6667 13.125H14.1667C14.5083 13.125 14.7917 13.4083 14.7917 13.75C14.7917 14.0917 14.5083 14.375 14.1667 14.375ZM14.1667 10.625H11.6667C11.325 10.625 11.0417 10.3417 11.0417 10C11.0417 9.65833 11.325 9.375 11.6667 9.375H14.1667C14.5083 9.375 14.7917 9.65833 14.7917 10C14.7917 10.3417 14.5083 10.625 14.1667 10.625ZM14.1667 6.875H11.6667C11.325 6.875 11.0417 6.59167 11.0417 6.25C11.0417 5.90833 11.325 5.625 11.6667 5.625H14.1667C14.5083 5.625 14.7917 5.90833 14.7917 6.25C14.7917 6.59167 14.5083 6.875 14.1667 6.875Z" fill="#1C1C1C"/>
</svg>
