<svg width="20" height="20" viewBox="0 0 20 20" fill="none" xmlns="http://www.w3.org/2000/svg">
<path d="M6.03341 1.66667H4.45008C2.62508 1.66667 1.66675 2.625 1.66675 4.44167V6.025C1.66675 7.84167 2.62508 8.80001 4.44175 8.80001H6.02508C7.84175 8.80001 8.80008 7.84167 8.80008 6.025V4.44167C8.80842 2.625 7.85008 1.66667 6.03341 1.66667Z" fill="#8E8E8E"/>
<path d="M15.5578 1.66667H13.9745C12.1578 1.66667 11.1995 2.625 11.1995 4.44167V6.025C11.1995 7.84167 12.1578 8.80001 13.9745 8.80001H15.5578C17.3745 8.80001 18.3328 7.84167 18.3328 6.025V4.44167C18.3328 2.625 17.3745 1.66667 15.5578 1.66667Z" fill="#8E8E8E"/>
<path d="M15.5578 11.1918H13.9745C12.1578 11.1918 11.1995 12.1502 11.1995 13.9668V15.5502C11.1995 17.3668 12.1578 18.3252 13.9745 18.3252H15.5578C17.3745 18.3252 18.3328 17.3668 18.3328 15.5502V13.9668C18.3328 12.1502 17.3745 11.1918 15.5578 11.1918Z" fill="#8E8E8E"/>
<path d="M6.03341 11.1917H4.45008C2.62508 11.1917 1.66675 12.15 1.66675 13.9667V15.55C1.66675 17.375 2.62508 18.3333 4.44175 18.3333H6.02508C7.84175 18.3333 8.80008 17.375 8.80008 15.5583V13.975C8.80842 12.15 7.85008 11.1917 6.03341 11.1917Z" fill="#8E8E8E"/>
</svg>
