<svg width="14" height="14" viewBox="0 0 14 14" fill="none" xmlns="http://www.w3.org/2000/svg">
<path d="M6.99992 0.333313C3.32659 0.333313 0.333252 3.32665 0.333252 6.99998C0.333252 10.6733 3.32659 13.6666 6.99992 13.6666C10.6733 13.6666 13.6666 10.6733 13.6666 6.99998C13.6666 3.32665 10.6733 0.333313 6.99992 0.333313ZM10.1866 5.46665L6.40659 9.24665C6.31325 9.33998 6.18659 9.39331 6.05325 9.39331C5.91992 9.39331 5.79325 9.33998 5.69992 9.24665L3.81325 7.35998C3.61992 7.16665 3.61992 6.84665 3.81325 6.65331C4.00659 6.45998 4.32659 6.45998 4.51992 6.65331L6.05325 8.18665L9.47992 4.75998C9.67325 4.56665 9.99325 4.56665 10.1866 4.75998C10.3799 4.95331 10.3799 5.26665 10.1866 5.46665Z" fill="#A93636"/>
</svg>
