<svg width="16" height="16" viewBox="0 0 16 16" fill="none" xmlns="http://www.w3.org/2000/svg">
<path d="M13.6667 6.79334H11.7401C10.1601 6.79334 8.87341 5.50668 8.87341 3.92668V2.00001C8.87341 1.63334 8.57341 1.33334 8.20675 1.33334H5.38008C3.32675 1.33334 1.66675 2.66668 1.66675 5.04668V10.9533C1.66675 13.3333 3.32675 14.6667 5.38008 14.6667H10.6201C12.6734 14.6667 14.3334 13.3333 14.3334 10.9533V7.46001C14.3334 7.09334 14.0334 6.79334 13.6667 6.79334ZM8.18675 10.52L6.85341 11.8533C6.80675 11.9 6.74675 11.94 6.68675 11.96C6.62675 11.9867 6.56675 12 6.50008 12C6.43341 12 6.37341 11.9867 6.31341 11.96C6.26008 11.94 6.20675 11.9 6.16675 11.86C6.16008 11.8533 6.15341 11.8533 6.15341 11.8467L4.82008 10.5133C4.62675 10.32 4.62675 10 4.82008 9.80668C5.01341 9.61334 5.33341 9.61334 5.52675 9.80668L6.00008 10.2933V7.50001C6.00008 7.22668 6.22675 7.00001 6.50008 7.00001C6.77341 7.00001 7.00008 7.22668 7.00008 7.50001V10.2933L7.48008 9.81334C7.67341 9.62001 7.99341 9.62001 8.18675 9.81334C8.38008 10.0067 8.38008 10.3267 8.18675 10.52Z" fill="#A93636"/>
<path d="M11.6197 5.87332C12.253 5.87999 13.133 5.87998 13.8864 5.87998C14.2664 5.87998 14.4664 5.43332 14.1997 5.16665C13.2397 4.19999 11.5197 2.45999 10.533 1.47332C10.2597 1.19999 9.78638 1.38665 9.78638 1.76665V4.09332C9.78638 5.06665 10.613 5.87332 11.6197 5.87332Z" fill="#A93636"/>
</svg>
