<svg width="18" height="18" viewBox="0 0 18 18" fill="none" xmlns="http://www.w3.org/2000/svg">
<path d="M10.0579 15.5923L9.00041 16.2748C8.01791 16.8823 6.65291 16.1998 6.65291 14.9848V10.9723C6.65291 10.4398 6.35291 9.75732 6.04541 9.38232L3.16539 6.35232C2.78289 5.96982 2.48291 5.29483 2.48291 4.83733V3.09732C2.48291 2.18982 3.16542 1.50732 3.99792 1.50732H14.0029C14.8354 1.50732 15.5179 2.18982 15.5179 3.02232V4.68732C15.5179 5.29482 15.1354 6.05232 14.7604 6.42732" stroke="#606060" stroke-width="1.5" stroke-miterlimit="10" stroke-linecap="round" stroke-linejoin="round"/>
<path d="M12.8101 8.91781L10.1551 11.5728C10.0501 11.6778 9.95261 11.8728 9.93011 12.0153L9.78761 13.0278C9.73511 13.3953 9.99012 13.6503 10.3576 13.5978L11.3701 13.4553C11.5126 13.4328 11.7151 13.3353 11.8126 13.2303L14.4676 10.5753C14.9251 10.1178 15.1426 9.5853 14.4676 8.9103C13.8001 8.2428 13.2676 8.46031 12.8101 8.91781Z" stroke="#606060" stroke-width="1.5" stroke-miterlimit="10" stroke-linecap="round" stroke-linejoin="round"/>
<path d="M12.4351 9.29279C12.6601 10.1028 13.29 10.7328 14.1 10.9578" stroke="#606060" stroke-width="1.5" stroke-miterlimit="10" stroke-linecap="round" stroke-linejoin="round"/>
</svg>
