<svg width="20" height="20" viewBox="0 0 20 20" fill="none" xmlns="http://www.w3.org/2000/svg">
<path d="M16.1167 12.075L15.2833 10.6917C15.1083 10.3833 14.95 9.8 14.95 9.45833V7.35C14.95 5.39167 13.8 3.7 12.1417 2.90833C11.7083 2.14167 10.9083 1.66667 9.99166 1.66667C9.08333 1.66667 8.26666 2.15833 7.83333 2.93333C6.20833 3.74167 5.08333 5.41667 5.08333 7.35V9.45833C5.08333 9.8 4.92499 10.3833 4.74999 10.6833L3.90833 12.075C3.57499 12.6333 3.49999 13.25 3.70833 13.8167C3.90833 14.375 4.38333 14.8083 4.99999 15.0167C6.61666 15.5667 8.31666 15.8333 10.0167 15.8333C11.7167 15.8333 13.4167 15.5667 15.0333 15.025C15.6167 14.8333 16.0667 14.3917 16.2833 13.8167C16.5 13.2417 16.4417 12.6083 16.1167 12.075Z" fill="#1C1C1C"/>
<path d="M12.3581 16.675C12.0081 17.6417 11.0831 18.3333 9.99978 18.3333C9.34145 18.3333 8.69145 18.0667 8.23311 17.5917C7.96645 17.3417 7.76645 17.0083 7.64978 16.6667C7.75811 16.6833 7.86645 16.6917 7.98311 16.7083C8.17478 16.7333 8.37478 16.7583 8.57478 16.775C9.04978 16.8167 9.53311 16.8417 10.0164 16.8417C10.4914 16.8417 10.9664 16.8167 11.4331 16.775C11.6081 16.7583 11.7831 16.75 11.9498 16.725C12.0831 16.7083 12.2164 16.6917 12.3581 16.675Z" fill="#1C1C1C"/>
</svg>
