<svg width="280" height="102" viewBox="0 0 280 102" fill="none" xmlns="http://www.w3.org/2000/svg">
<mask id="path-1-inside-1_0_1771" fill="white">
<path d="M0 0H280V102H0V0Z"/>
</mask>
<path d="M0 0H280V102H0V0Z" fill="black"/>
<path d="M280 101H0V103H280V101Z" fill="#393939" mask="url(#path-1-inside-1_0_1771)"/>
<path d="M173.789 55.5627V53.8688H173.146V53.5964H174.731V53.8688H174.088V55.5627H173.789Z" fill="white"/>
<path d="M175.208 54.0594V55.5627H174.93V53.5964H175.301L175.965 55.1923L176.624 53.5964H177V55.5627H176.717V54.054L176.096 55.5627H175.834L175.208 54.0594Z" fill="white"/>
<path d="M71.9321 53.4819C72.751 53.4696 73.5614 53.6494 74.2983 54.007C75.0352 54.3645 75.678 54.8899 76.1751 55.5408C77.3239 56.9863 77.9205 58.7936 77.8581 60.639C77.9276 62.4876 77.3368 64.3007 76.1914 65.7535C75.6898 66.402 75.0433 66.924 74.3036 67.2778C73.564 67.6315 72.7518 67.8072 71.9321 67.7906C70.7824 67.8127 69.665 67.4093 68.7947 66.6577C67.8789 65.8304 67.2145 64.762 66.8775 63.5748V72.8343H63.2771V53.7706H66.8775V57.7249C67.2172 56.535 67.8877 55.4659 68.8111 54.6421C69.6731 53.8844 70.7844 53.4713 71.9321 53.4819ZM70.6248 64.5062C71.0931 64.5159 71.5579 64.4235 71.9868 64.2353C72.4157 64.0472 72.7985 63.7679 73.1086 63.4168C73.762 62.6493 74.1209 61.6742 74.1209 60.6662C74.1209 59.6582 73.762 58.6831 73.1086 57.9156C72.7967 57.5668 72.4135 57.289 71.985 57.1011C71.5565 56.9132 71.0927 56.8194 70.6248 56.8262C70.1245 56.811 69.6264 56.9 69.1623 57.0875C68.6981 57.2751 68.278 57.557 67.9287 57.9156C67.5743 58.2737 67.2953 58.6992 67.1082 59.167C66.9211 59.6347 66.8297 60.1353 66.8393 60.639C66.827 61.1487 66.9171 61.6558 67.1042 62.1301C67.2913 62.6044 67.5717 63.0364 67.9287 63.4005C68.2774 63.7654 68.6994 64.0526 69.1668 64.2431C69.6343 64.4336 70.1367 64.5233 70.6412 64.5062H70.6248Z" fill="white"/>
<path d="M86.8681 53.4804C87.9256 53.4421 88.9777 53.6476 89.943 54.0812C90.9083 54.5147 91.7609 55.1646 92.4347 55.9805C93.1226 56.7942 93.6179 57.7526 93.8838 58.7843C94.1498 59.816 94.1795 60.8945 93.9707 61.9392H83.3713C83.5959 62.7431 84.0781 63.4511 84.7439 63.9546C85.4305 64.4701 86.2712 64.7388 87.1296 64.7171C87.824 64.7577 88.5154 64.5981 89.1218 64.2573C89.7281 63.9164 90.2239 63.4087 90.5501 62.7944L93.4914 64.118C92.8716 65.2317 91.9627 66.1576 90.8606 66.7978C89.6904 67.4767 88.357 67.8233 87.0043 67.8C86.0338 67.8296 85.0674 67.6635 84.1625 67.3116C83.2576 66.9598 82.4328 66.4294 81.7373 65.752C80.3922 64.3961 79.6374 62.5637 79.6374 60.6538C79.6374 58.7439 80.3922 56.9115 81.7373 55.5556C82.4074 54.8804 83.2078 54.3483 84.0897 53.9915C84.9717 53.6348 85.9169 53.4609 86.8681 53.4804ZM86.8681 56.5796C86.0939 56.5704 85.3388 56.8196 84.7221 57.2877C84.0917 57.7568 83.6279 58.4153 83.3985 59.1668H90.3649C90.1375 58.4186 89.6801 57.7611 89.0577 57.2877C88.4284 56.8118 87.6569 56.5623 86.8681 56.5796Z" fill="white"/>
<path d="M103.096 53.4803C104.153 53.4424 105.204 53.6482 106.168 54.0817C107.133 54.5153 107.984 55.1649 108.657 55.9804C109.349 56.792 109.846 57.7503 110.112 58.7827C110.379 59.8151 110.406 60.8945 110.193 61.9391H99.5722C99.8019 62.7545 100.296 63.4701 100.978 63.9731C101.66 64.4761 102.489 64.7378 103.336 64.717C104.03 64.7572 104.72 64.5974 105.326 64.2565C105.931 63.9157 106.426 63.4082 106.751 62.7943L109.714 64.1179C109.097 65.2334 108.187 66.1598 107.083 66.7977C105.914 67.4779 104.58 67.8246 103.227 67.7999C102.258 67.8274 101.294 67.6603 100.391 67.3085C99.4886 66.9567 98.6655 66.4274 97.9709 65.7519C96.6261 64.3976 95.8691 62.5679 95.864 60.6593C95.8589 58.7507 96.6061 56.917 97.9436 55.5555C98.6168 54.8781 99.4207 54.3448 100.307 53.988C101.192 53.6312 102.142 53.4585 103.096 53.4803ZM103.096 56.5795C102.32 56.5703 101.564 56.8194 100.945 57.2876C100.314 57.7554 99.8518 58.4146 99.6267 59.1667H106.588C106.364 58.4165 105.906 57.7578 105.28 57.2876C104.653 56.8125 103.883 56.563 103.096 56.5795Z" fill="white"/>
<path d="M116.28 53.7696V57.3481C116.727 55.676 117.413 54.5648 118.35 54.0147C118.81 53.7401 119.325 53.5713 119.858 53.5204C120.392 53.4695 120.929 53.5379 121.433 53.7206V57.1357C119.99 56.64 118.775 56.6618 117.778 57.2011C117.301 57.4477 116.905 57.8275 116.639 58.2945C116.374 58.7614 116.249 59.2955 116.28 59.8319V67.5227H112.68V53.7696H116.28Z" fill="white"/>
<path d="M127.009 67.5223H123.403V47.7778H127.009V67.5223Z" fill="white"/>
<path d="M136.591 53.4803C137.648 53.4424 138.7 53.6481 139.665 54.0816C140.631 54.5151 141.483 55.1648 142.157 55.9804C142.847 56.7931 143.343 57.7516 143.608 58.7838C143.873 59.816 143.9 60.8948 143.688 61.9392H133.067C133.296 62.7545 133.791 63.4701 134.472 63.9731C135.154 64.4761 135.984 64.7378 136.83 64.717C137.524 64.7586 138.215 64.5993 138.821 64.2583C139.427 63.9174 139.921 63.4091 140.245 62.7943L143.209 64.1179C142.586 65.2321 141.67 66.155 140.561 66.7868C139.404 67.4581 138.087 67.8044 136.749 67.789C135.776 67.8213 134.808 67.6576 133.9 67.3076C132.992 66.9576 132.164 66.4286 131.465 65.7519C130.12 64.3976 129.364 62.5679 129.358 60.6593C129.353 58.7507 130.1 56.917 131.438 55.5555C132.111 54.8781 132.915 54.3448 133.801 53.988C134.687 53.6312 135.636 53.4585 136.591 53.4803ZM136.591 56.5795C135.816 56.5703 135.061 56.8195 134.445 57.2876C133.814 57.7567 133.35 58.4152 133.121 59.1667H140.088C139.86 58.4185 139.403 57.761 138.78 57.2876C138.151 56.8125 137.379 56.563 136.591 56.5795Z" fill="white"/>
<path d="M145.374 63.8126L148.98 63.0664C149.138 64.3083 149.955 64.9347 151.431 64.9347C152.046 64.9612 152.657 64.818 153.196 64.5207C153.388 64.4239 153.551 64.2774 153.668 64.0964C153.785 63.9154 153.851 63.7065 153.86 63.4913C153.859 63.2952 153.802 63.1036 153.696 62.9387C153.59 62.7738 153.439 62.6424 153.261 62.5599C152.801 62.3061 152.293 62.1503 151.769 62.1023C151.113 62.0215 150.463 61.907 149.819 61.7592C149.156 61.6076 148.505 61.4111 147.869 61.1709C147.262 60.9279 146.742 60.5086 146.377 59.9672C145.957 59.3364 145.747 58.5891 145.777 57.8321C145.777 57.22 145.926 56.6171 146.21 56.0753C146.495 55.5335 146.907 55.0691 147.411 54.722C148.582 53.8637 150.008 53.426 151.458 53.4801C152.873 53.425 154.27 53.8053 155.462 54.5695C155.96 54.8933 156.384 55.3189 156.706 55.8183C157.028 56.3177 157.241 56.8797 157.33 57.4671L153.757 58.2133C153.577 56.966 152.815 56.3451 151.458 56.3451C150.948 56.3269 150.443 56.4555 150.004 56.7155C149.833 56.8119 149.689 56.9518 149.589 57.121C149.489 57.2902 149.435 57.4828 149.432 57.6796C149.435 57.8789 149.492 58.0736 149.598 58.2427C149.703 58.4117 149.853 58.5485 150.031 58.6382C150.494 58.8917 151.004 59.0474 151.529 59.0957C152.184 59.1777 152.833 59.2977 153.474 59.4552C154.136 59.612 154.787 59.8121 155.424 60.0544C156.03 60.2956 156.547 60.7178 156.905 61.2635C157.176 61.6857 157.36 62.1572 157.449 62.6508C157.537 63.1445 157.527 63.6507 157.419 64.1405C157.311 64.6302 157.108 65.0939 156.821 65.505C156.533 65.9161 156.168 66.2664 155.745 66.536C154.481 67.3982 152.976 67.8369 151.447 67.7888C149.988 67.848 148.544 67.4685 147.302 66.6994C146.793 66.384 146.358 65.9632 146.025 65.4652C145.693 64.9672 145.471 64.4037 145.374 63.8126Z" fill="white"/>
<path d="M158.742 63.8135L162.348 63.0673C162.506 64.3092 163.323 64.9356 164.799 64.9356C165.414 64.9621 166.024 64.8189 166.564 64.5216C166.76 64.4277 166.928 64.2825 167.048 64.1013C167.169 63.9201 167.239 63.7097 167.25 63.4922C167.249 63.2961 167.191 63.1045 167.085 62.9396C166.979 62.7747 166.829 62.6433 166.651 62.5608C166.19 62.307 165.682 62.1512 165.158 62.1032C164.503 62.0224 163.852 61.9079 163.208 61.7601C162.546 61.6086 161.894 61.412 161.258 61.1718C160.652 60.9288 160.132 60.5095 159.766 59.9681C159.346 59.3373 159.137 58.59 159.167 57.833C159.167 57.2209 159.315 56.618 159.6 56.0762C159.885 55.5344 160.297 55.07 160.801 54.7229C161.97 53.8658 163.394 53.4282 164.842 53.481C166.259 53.4266 167.657 53.8067 168.851 54.5704C169.348 54.8952 169.771 55.3212 170.092 55.8205C170.413 56.3198 170.625 56.8812 170.714 57.468L167.141 58.2143C166.961 56.9669 166.199 56.346 164.842 56.346C164.332 56.3278 163.827 56.4564 163.388 56.7164C163.217 56.8128 163.074 56.9527 162.973 57.1219C162.873 57.2911 162.819 57.4837 162.816 57.6805C162.819 57.8798 162.876 58.0746 162.982 58.2436C163.087 58.4126 163.237 58.5494 163.415 58.6391C163.878 58.8926 164.388 59.0483 164.913 59.0966C165.568 59.1786 166.217 59.2986 166.858 59.4561C167.52 59.6129 168.172 59.8131 168.808 60.0553C169.419 60.296 169.94 60.7204 170.3 61.2699C170.571 61.6921 170.755 62.1635 170.844 62.6572C170.932 63.1508 170.922 63.6571 170.814 64.1468C170.706 64.6366 170.503 65.1003 170.216 65.5113C169.928 65.9224 169.563 66.2728 169.14 66.5424C167.876 67.4045 166.371 67.8432 164.842 67.7951C163.383 67.8543 161.939 67.4749 160.697 66.7058C160.183 66.3927 159.741 65.9722 159.404 65.4731C159.067 64.974 158.841 64.4079 158.742 63.8135Z" fill="white"/>
<path d="M63.7614 25.3705L53.4126 20L43.0637 25.3651V36.4002V41.5474L40.3403 40.1204L34.3489 37.0266L24 42.3862V54.4999L34.3489 60.1536L44.567 54.5761V49.3527L53.4126 54.1676L63.7614 48.5139L74.1375 42.8764V30.741L63.7614 25.3705ZM32.851 57.6209L25.5033 53.6066V44.8918L32.851 48.906V57.6209ZM44.5834 27.8978L51.8385 31.8631L44.5834 35.6213V27.8978ZM51.931 51.6349L44.5834 47.6478V38.933L51.931 42.9473V51.6349Z" fill="url(#paint0_linear_0_1771)"/>
<path d="M77.504 80H76.624V74.256H80.112V75.024H77.504V76.896H79.728V77.664H77.504V80ZM81.6805 77.832V80H80.8725V75.76H81.6245V76.656C81.9205 76.072 82.5605 75.704 83.2565 75.704V76.544C82.3445 76.496 81.6805 76.896 81.6805 77.832ZM85.6563 80.08C84.4563 80.08 83.5763 79.136 83.5763 77.88C83.5763 76.624 84.4563 75.68 85.6563 75.68C86.8563 75.68 87.7363 76.624 87.7363 77.88C87.7363 79.136 86.8563 80.08 85.6563 80.08ZM85.6563 79.368C86.3523 79.368 86.9043 78.808 86.9043 77.88C86.9043 76.952 86.3523 76.4 85.6563 76.4C84.9603 76.4 84.4163 76.952 84.4163 77.88C84.4163 78.808 84.9603 79.368 85.6563 79.368ZM89.368 77.608V80H88.56V75.76H89.312V76.464C89.6 75.992 90.08 75.68 90.664 75.68C91.536 75.68 92.112 76.24 92.112 77.256V80H91.304V77.528C91.304 76.8 90.984 76.392 90.384 76.392C89.832 76.392 89.368 76.856 89.368 77.608ZM95.5614 79.216V79.928C95.3134 80.04 95.0974 80.08 94.8414 80.08C94.0574 80.08 93.5134 79.656 93.5134 78.72V76.448H92.5774V75.76H93.5134V74.504H94.3214V75.76H95.6014V76.448H94.3214V78.536C94.3214 79.12 94.6014 79.328 95.0334 79.328C95.2254 79.328 95.3934 79.296 95.5614 79.216ZM97.9993 80.08C96.7753 80.08 95.9513 79.192 95.9513 77.856C95.9513 76.6 96.8073 75.68 97.9753 75.68C99.2393 75.68 100.079 76.704 99.9353 78.08H96.7753C96.8393 78.944 97.2713 79.448 97.9833 79.448C98.5833 79.448 98.9993 79.12 99.1353 78.568H99.9353C99.7273 79.512 98.9993 80.08 97.9993 80.08ZM97.9593 76.288C97.3113 76.288 96.8713 76.752 96.7833 77.544H99.0793C99.0393 76.76 98.6153 76.288 97.9593 76.288ZM101.602 77.608V80H100.794V75.76H101.546V76.464C101.834 75.992 102.314 75.68 102.898 75.68C103.77 75.68 104.346 76.24 104.346 77.256V80H103.538V77.528C103.538 76.8 103.218 76.392 102.618 76.392C102.066 76.392 101.602 76.856 101.602 77.608ZM105.115 77.88C105.115 76.592 105.851 75.68 106.995 75.68C107.563 75.68 108.059 75.968 108.355 76.488V74.256H109.163V80H108.411V79.24C108.107 79.776 107.595 80.08 106.995 80.08C105.851 80.08 105.115 79.152 105.115 77.88ZM105.955 77.88C105.955 78.824 106.451 79.36 107.155 79.36C107.843 79.36 108.355 78.8 108.355 77.864C108.355 76.912 107.827 76.392 107.155 76.392C106.451 76.392 105.955 76.92 105.955 77.88ZM114.302 80H113.422V75.048H111.55V74.256H116.174V75.048H114.302V80ZM120.592 79.232V80H116.952V74.256H120.536V75.024H117.832V76.656H120.296V77.424H117.832V79.232H120.592ZM125.824 78.32C125.824 79.32 125.024 80.08 123.632 80.08C122.248 80.08 121.408 79.32 121.336 78.176H122.232C122.272 78.904 122.736 79.376 123.616 79.376C124.344 79.376 124.888 79.032 124.888 78.44C124.888 77.96 124.576 77.72 123.912 77.576L123.08 77.416C122.272 77.256 121.536 76.848 121.536 75.872C121.536 74.904 122.384 74.176 123.576 74.176C124.768 74.176 125.672 74.904 125.744 76.048H124.848C124.8 75.36 124.304 74.88 123.584 74.88C122.84 74.88 122.432 75.32 122.432 75.816C122.432 76.36 122.904 76.552 123.44 76.664L124.288 76.832C125.272 77.032 125.824 77.464 125.824 78.32ZM128.92 80H128.04V75.048H126.168V74.256H130.792V75.048H128.92V80Z" fill="white"/>
<defs>
<linearGradient id="paint0_linear_0_1771" x1="24" y1="40.0768" x2="74.1375" y2="40.0768" gradientUnits="userSpaceOnUse">
<stop stop-color="#783B96"/>
<stop offset="1" stop-color="#C5593C"/>
</linearGradient>
</defs>
</svg>
