<svg width="25" height="24" viewBox="0 0 25 24" fill="none" xmlns="http://www.w3.org/2000/svg">
<path d="M18.6666 3H6.66663C4.45663 3 2.66663 4.78 2.66663 6.97V17.03C2.66663 19.22 4.45663 21 6.66663 21H18.6666C20.8766 21 22.6666 19.22 22.6666 17.03V6.97C22.6666 4.78 20.8766 3 18.6666 3ZM9.16663 7.17C10.4366 7.17 11.4766 8.21 11.4766 9.48C11.4766 10.75 10.4366 11.79 9.16663 11.79C7.89663 11.79 6.85663 10.75 6.85663 9.48C6.85663 8.21 7.89663 7.17 9.16663 7.17ZM13.0366 16.66C12.9466 16.76 12.8066 16.82 12.6666 16.82H5.66663C5.52663 16.82 5.38663 16.76 5.29663 16.66C5.20663 16.56 5.15663 16.42 5.16663 16.28C5.33663 14.6 6.67663 13.27 8.35663 13.11C8.88663 13.06 9.43663 13.06 9.96663 13.11C11.6466 13.27 12.9966 14.6 13.1566 16.28C13.1766 16.42 13.1266 16.56 13.0366 16.66ZM19.6666 16.75H17.6666C17.2566 16.75 16.9166 16.41 16.9166 16C16.9166 15.59 17.2566 15.25 17.6666 15.25H19.6666C20.0766 15.25 20.4166 15.59 20.4166 16C20.4166 16.41 20.0766 16.75 19.6666 16.75ZM19.6666 12.75H15.6666C15.2566 12.75 14.9166 12.41 14.9166 12C14.9166 11.59 15.2566 11.25 15.6666 11.25H19.6666C20.0766 11.25 20.4166 11.59 20.4166 12C20.4166 12.41 20.0766 12.75 19.6666 12.75ZM19.6666 8.75H14.6666C14.2566 8.75 13.9166 8.41 13.9166 8C13.9166 7.59 14.2566 7.25 14.6666 7.25H19.6666C20.0766 7.25 20.4166 7.59 20.4166 8C20.4166 8.41 20.0766 8.75 19.6666 8.75Z" fill="#1C1C1C"/>
</svg>
