<svg width="24" height="24" viewBox="0 0 24 24" fill="none" xmlns="http://www.w3.org/2000/svg">
<path d="M9 2C6.38 2 4.25 4.13 4.25 6.75C4.25 9.32 6.26 11.4 8.88 11.49C8.96 11.48 9.04 11.48 9.1 11.49C9.12 11.49 9.13 11.49 9.15 11.49C9.16 11.49 9.16 11.49 9.17 11.49C11.73 11.4 13.74 9.32 13.75 6.75C13.75 4.13 11.62 2 9 2Z" fill="#1C1C1C"/>
<path d="M14.0809 14.1499C11.2909 12.2899 6.74094 12.2899 3.93094 14.1499C2.66094 14.9999 1.96094 16.1499 1.96094 17.3799C1.96094 18.6099 2.66094 19.7499 3.92094 20.5899C5.32094 21.5299 7.16094 21.9999 9.00094 21.9999C10.8409 21.9999 12.6809 21.5299 14.0809 20.5899C15.3409 19.7399 16.0409 18.5999 16.0409 17.3599C16.0309 16.1299 15.3409 14.9899 14.0809 14.1499Z" fill="#1C1C1C"/>
<path d="M19.9894 7.3401C20.1494 9.2801 18.7694 10.9801 16.8594 11.2101C16.8494 11.2101 16.8494 11.2101 16.8394 11.2101H16.8094C16.7494 11.2101 16.6894 11.2101 16.6394 11.2301C15.6694 11.2801 14.7794 10.9701 14.1094 10.4001C15.1394 9.4801 15.7294 8.1001 15.6094 6.6001C15.5394 5.7901 15.2594 5.0501 14.8394 4.4201C15.2194 4.2301 15.6594 4.1101 16.1094 4.0701C18.0694 3.9001 19.8194 5.3601 19.9894 7.3401Z" fill="#1C1C1C"/>
<path d="M21.99 16.59C21.91 17.56 21.29 18.4 20.25 18.97C19.25 19.52 17.99 19.78 16.74 19.75C17.46 19.1 17.88 18.29 17.96 17.43C18.06 16.19 17.47 15 16.29 14.05C15.62 13.52 14.84 13.1 13.99 12.79C16.2 12.15 18.98 12.58 20.69 13.96C21.61 14.7 22.08 15.63 21.99 16.59Z" fill="#1C1C1C"/>
</svg>
