<svg width="25" height="24" viewBox="0 0 25 24" fill="none" xmlns="http://www.w3.org/2000/svg">
<path d="M9.66663 2C7.04663 2 4.91663 4.13 4.91663 6.75C4.91663 9.32 6.92663 11.4 9.54663 11.49C9.62663 11.48 9.70663 11.48 9.76663 11.49C9.78663 11.49 9.79663 11.49 9.81663 11.49C9.82663 11.49 9.82663 11.49 9.83663 11.49C12.3966 11.4 14.4066 9.32 14.4166 6.75C14.4166 4.13 12.2866 2 9.66663 2Z" fill="#1C1C1C"/>
<path d="M14.7476 14.1499C11.9576 12.2899 7.40756 12.2899 4.59756 14.1499C3.32756 14.9999 2.62756 16.1499 2.62756 17.3799C2.62756 18.6099 3.32756 19.7499 4.58756 20.5899C5.98756 21.5299 7.82756 21.9999 9.66756 21.9999C11.5076 21.9999 13.3476 21.5299 14.7476 20.5899C16.0076 19.7399 16.7076 18.5999 16.7076 17.3599C16.6976 16.1299 16.0076 14.9899 14.7476 14.1499Z" fill="#4F4F4F"/>
<path d="M20.656 7.3401C20.816 9.2801 19.436 10.9801 17.526 11.2101C17.516 11.2101 17.516 11.2101 17.506 11.2101H17.476C17.416 11.2101 17.356 11.2101 17.306 11.2301C16.336 11.2801 15.446 10.9701 14.776 10.4001C15.806 9.4801 16.396 8.1001 16.276 6.6001C16.206 5.7901 15.926 5.0501 15.506 4.4201C15.886 4.2301 16.326 4.1101 16.776 4.0701C18.736 3.9001 20.486 5.3601 20.656 7.3401Z" fill="#4F4F4F"/>
<path d="M22.6566 16.59C22.5766 17.56 21.9566 18.4 20.9166 18.97C19.9166 19.52 18.6566 19.78 17.4066 19.75C18.1266 19.1 18.5466 18.29 18.6266 17.43C18.7266 16.19 18.1366 15 16.9566 14.05C16.2866 13.52 15.5066 13.1 14.6566 12.79C16.8666 12.15 19.6466 12.58 21.3566 13.96C22.2766 14.7 22.7466 15.63 22.6566 16.59Z" fill="#4F4F4F"/>
</svg>
